<?xml version="1.0" encoding="utf-8"?>
<!-- Generator: Adobe Illustrator 23.1.1, SVG Export Plug-In . SVG Version: 6.00 Build 0)  -->
<svg version="1.1" id="图层_1" xmlns="http://www.w3.org/2000/svg" xmlns:xlink="http://www.w3.org/1999/xlink" x="0px" y="0px"
	 viewBox="0 0 1024 1024" style="enable-background:new 0 0 1024 1024;" xml:space="preserve">
<style type="text/css">
	.st0{opacity:0.2;fill-rule:evenodd;clip-rule:evenodd;}
	.st1{filter:url(#Adobe_OpacityMaskFilter);}
	.st2{opacity:0.4;fill-rule:evenodd;clip-rule:evenodd;fill:url(#SVGID_2_);}
	.st3{mask:url(#SVGID_1_);fill-rule:evenodd;clip-rule:evenodd;fill:#00FFCE;}
	.st4{fill-rule:evenodd;clip-rule:evenodd;fill:#3066B8;}
	.st5{fill-rule:evenodd;clip-rule:evenodd;fill:#5E92E0;}
	.st6{fill:#5E92E0;}
	.st7{fill:#4E74AD;}
	.st8{opacity:0.1;fill-rule:evenodd;clip-rule:evenodd;fill:none;stroke:#FFFFFF;stroke-width:6;stroke-miterlimit:10;}
	.st9{filter:url(#Adobe_OpacityMaskFilter_1_);}
	.st10{fill-rule:evenodd;clip-rule:evenodd;fill:url(#SVGID_4_);}
	.st11{mask:url(#SVGID_3_);fill-rule:evenodd;clip-rule:evenodd;fill:#FFFFFF;}
	.st12{filter:url(#Adobe_OpacityMaskFilter_2_);}
	.st13{opacity:0.4;fill-rule:evenodd;clip-rule:evenodd;fill:url(#SVGID_6_);}
	.st14{mask:url(#SVGID_5_);fill-rule:evenodd;clip-rule:evenodd;fill:#38FFC9;}
	.st15{filter:url(#Adobe_OpacityMaskFilter_3_);}
	.st16{opacity:0.4;fill-rule:evenodd;clip-rule:evenodd;fill:url(#SVGID_8_);}
	.st17{mask:url(#SVGID_7_);fill-rule:evenodd;clip-rule:evenodd;fill:#38FFC9;}
</style>
<path class="st0" d="M537.17,829.57c123.85,0,224.25,22.85,224.25,51.03s-100.4,51.03-224.25,51.03
	c-123.85,0-224.25-22.85-224.25-51.03S413.32,829.57,537.17,829.57z"/>
<defs>
	<filter id="Adobe_OpacityMaskFilter" filterUnits="userSpaceOnUse" x="180" y="98.15" width="664" height="664">
		
			<feColorMatrix  type="matrix" values="-1 0 0 0 1  0 -1 0 0 1  0 0 -1 0 1  0 0 0 1 0" color-interpolation-filters="sRGB" result="source"/>
	</filter>
</defs>
<mask maskUnits="userSpaceOnUse" x="180" y="98.15" width="664" height="664" id="SVGID_1_">
	<g class="st1">
		<linearGradient id="SVGID_2_" gradientUnits="userSpaceOnUse" x1="446.3181" y1="726.9542" x2="849.5147" y2="328.6471">
			<stop  offset="0" style="stop-color:#2FEEE7"/>
			<stop  offset="0.2365" style="stop-color:#5CF2EC"/>
			<stop  offset="0.7694" style="stop-color:#CDFBF9"/>
			<stop  offset="0.9944" style="stop-color:#FFFFFF"/>
		</linearGradient>
		<path class="st2" d="M746.76,195.39c129.65,129.65,129.65,339.87,0,469.52s-339.87,129.65-469.52,0L746.76,195.39z"/>
	</g>
</mask>
<path class="st3" d="M512,98.15c183.36,0,332,148.64,332,332s-148.64,332-332,332s-332-148.64-332-332S328.64,98.15,512,98.15z"/>
<path class="st4" d="M889.84,448.21c0-183.36-148.64-332-332-332s-332,148.64-332,332c0,162,116.05,296.88,269.54,326.11l20.73,35.9
	l19,32.92h-20.3v37.46h41.93l61.08-105.81C772.55,746.56,889.84,611.09,889.84,448.21z"/>
<path class="st5" d="M512,102.15c183.36,0,332,148.64,332,332s-148.64,332-332,332s-332-148.64-332-332S328.64,102.15,512,102.15z"
	/>
<path class="st6" d="M764.45,447.58h-500l116.7,202.13v-9.75h270.58v2.86L764.45,447.58z M441.77,754.7l32.05,55.52l40.63,70.38
	l70.59-122.28l2.82-4.88c-24.36,5.7-49.76,8.71-75.86,8.71C487.9,762.15,464.41,759.58,441.77,754.7z"/>
<path class="st7" d="M585.21,758.05l-2.82,4.88l-106.57,51.29l-32.05-55.52c22.64,4.88,46.13,7.45,70.23,7.45
	C540.1,766.15,560.85,763.75,585.21,758.05z"/>
<path class="st8" d="M501.63,203.99c124.9,0,226.16,101.26,226.16,226.16S626.54,656.31,501.63,656.31S275.47,555.06,275.47,430.15
	S376.73,203.99,501.63,203.99z"/>
<defs>
	<filter id="Adobe_OpacityMaskFilter_1_" filterUnits="userSpaceOnUse" x="179.75" y="102.27" width="663.04" height="349.94">
		<feColorMatrix  type="matrix" values="1 0 0 0 0  0 1 0 0 0  0 0 1 0 0  0 0 0 1 0"/>
	</filter>
</defs>
<mask maskUnits="userSpaceOnUse" x="179.75" y="102.27" width="663.04" height="349.94" id="SVGID_3_">
	<g class="st9">
		<linearGradient id="SVGID_4_" gradientUnits="userSpaceOnUse" x1="179.7549" y1="274.2844" x2="842.7982" y2="274.2844">
			<stop  offset="0" style="stop-color:#FFFFFF"/>
			<stop  offset="1" style="stop-color:#000000"/>
		</linearGradient>
		<path class="st10" d="M511.28,136.15c-176.88,0-320.98,138.63-330.59,313.1c-0.34-6.13-0.93-12.2-0.93-18.42
			c0-183.09,148.43-331.52,331.52-331.52S842.8,247.74,842.8,430.84c0,6.22-0.59,12.28-0.93,18.42
			C832.26,274.78,688.15,136.15,511.28,136.15z"/>
	</g>
</mask>
<path class="st11" d="M511.28,139.11c-176.88,0-320.98,138.63-330.59,313.1c-0.34-6.13-0.93-12.2-0.93-18.42
	c0-183.09,148.43-331.52,331.52-331.52S842.8,250.7,842.8,433.79c0,6.22-0.59,12.28-0.93,18.42
	C832.26,277.73,688.15,139.11,511.28,139.11z"/>
<defs>
	<filter id="Adobe_OpacityMaskFilter_2_" filterUnits="userSpaceOnUse" x="180" y="102.15" width="664" height="664">
		
			<feColorMatrix  type="matrix" values="-1 0 0 0 1  0 -1 0 0 1  0 0 -1 0 1  0 0 0 1 0" color-interpolation-filters="sRGB" result="source"/>
	</filter>
</defs>
<mask maskUnits="userSpaceOnUse" x="180" y="102.15" width="664" height="664" id="SVGID_5_">
	<g class="st12">
		<linearGradient id="SVGID_6_" gradientUnits="userSpaceOnUse" x1="446.3181" y1="730.9542" x2="849.5147" y2="332.6471">
			<stop  offset="0" style="stop-color:#208EFF"/>
			<stop  offset="0.2216" style="stop-color:#4DA5FF"/>
			<stop  offset="0.7206" style="stop-color:#BEDEFF"/>
			<stop  offset="0.9944" style="stop-color:#FFFFFF"/>
		</linearGradient>
		<path class="st13" d="M746.76,199.39c129.65,129.65,129.65,339.87,0,469.52s-339.87,129.65-469.52,0L746.76,199.39z"/>
	</g>
</mask>
<path class="st14" d="M512,102.15c183.36,0,332,148.64,332,332s-148.64,332-332,332s-332-148.64-332-332S328.64,102.15,512,102.15z"
	/>
<defs>
	<filter id="Adobe_OpacityMaskFilter_3_" filterUnits="userSpaceOnUse" x="180" y="102.15" width="664" height="664">
		
			<feColorMatrix  type="matrix" values="-1 0 0 0 1  0 -1 0 0 1  0 0 -1 0 1  0 0 0 1 0" color-interpolation-filters="sRGB" result="source"/>
	</filter>
</defs>
<mask maskUnits="userSpaceOnUse" x="180" y="102.15" width="664" height="664" id="SVGID_7_">
	<g class="st15">
		<linearGradient id="SVGID_8_" gradientUnits="userSpaceOnUse" x1="446.3181" y1="730.9542" x2="849.5147" y2="332.6471">
			<stop  offset="0" style="stop-color:#208EFF"/>
			<stop  offset="0.2216" style="stop-color:#4DA5FF"/>
			<stop  offset="0.7206" style="stop-color:#BEDEFF"/>
			<stop  offset="0.9944" style="stop-color:#FFFFFF"/>
		</linearGradient>
		<path class="st16" d="M746.76,199.39c129.65,129.65,129.65,339.87,0,469.52s-339.87,129.65-469.52,0L746.76,199.39z"/>
	</g>
</mask>
<path class="st17" d="M512,102.15c183.36,0,332,148.64,332,332s-148.64,332-332,332s-332-148.64-332-332S328.64,102.15,512,102.15z"
	/>
</svg>
